{"asset":{"version":"2.0","generator":"VECTARY"},"nodes":[{"translation":[-0.22875042393556955,0.3619363903852968,0.31464461971671653],"scale":[0.001,0.001,0.001],"rotation":[-0.7071067811865475,0,0,0.7071067811865476],"name":"Point Light","extensions":{"KHR_lights_punctual":{"light":0}}},{"translation":[0,0,0],"scale":[0.001,0.001,0.001],"rotation":[-0.7071067811865475,0,0,0.7071067811865476],"name":"Box - baked","mesh":0}],"extensions":{"KHR_lights_punctual":{"lights":[{"name":"Point Light","type":"point","intensity":2,"range":10000,"color":[1,1,1]}]}},"materials":[{"pbrMetallicRoughness":{"baseColorFactor":[0.6320426176206414,0.6320426176206414,0.6320426176206414,1],"metallicRoughnessTexture":{"index":1,"extensions":{"KHR_texture_transform":{"offset":[0,0],"scale":[1,1],"rotation":0}},"texCoord":0},"metallicFactor":0,"roughnessFactor":1},"name":"Subsurface Textured","normalTexture":{"index":0,"scale":1,"extensions":{"KHR_texture_transform":{"offset":[0,0],"scale":[1,1],"rotation":0}},"texCoord":0},"emissiveFactor":[0,0,0],"extensions":{},"alphaMode":"OPAQUE","doubleSided":false}],"textures":[{"sampler":0,"source":0},{"sampler":0,"source":1}],"images":[{"uri":"Plastic_007_NormalMap.jpg","mimeType":"image/jpeg"},{"uri":"metallicTexture&Plastic_007_Roughness.jpg","mimeType":"image/jpeg"}],"samplers":[{"wrapS":10497,"wrapT":10497}],"meshes":[{"primitives":[{"mode":4,"attributes":{"POSITION":1,"NORMAL":2,"TEXCOORD_0":3},"material":0,"indices":0}]}],"accessors":[{"bufferView":0,"byteOffset":0,"componentType":5125,"count":1668,"type":"SCALAR"},{"bufferView":1,"byteOffset":0,"componentType":5126,"count":652,"max":[228.31658935546875,59.31658935546875,28],"min":[-228.31658935546875,-59.31658935546875,0],"type":"VEC3"},{"bufferView":2,"byteOffset":0,"componentType":5126,"count":652,"type":"VEC3"},{"bufferView":3,"byteOffset":0,"componentType":5126,"count":652,"type":"VEC2"}],"bufferViews":[{"buffer":0,"byteOffset":0,"byteLength":6672,"target":34963},{"buffer":0,"byteOffset":6672,"byteLength":7824,"target":34962},{"buffer":0,"byteOffset":14496,"byteLength":7824,"target":34962},{"buffer":0,"byteOffset":22320,"byteLength":5216,"target":34962}],"scene":0,"scenes":[{"nodes":[0,1],"name":"Project Name"}],"extensionsUsed":["KHR_texture_transform","KHR_lights_punctual"],"extensionsRequired":["KHR_lights_punctual"],"buffers":[{"byteLength":27536,"uri":"ProjectName.bin"}]}